<?xml version="1.0" encoding="UTF-8"?>
<svg width="1920" height="1080" viewBox="0 0 1920 1080" xmlns="http://www.w3.org/2000/svg">
    <defs>
        <!-- 攀岩者剪影 -->
        <path id="climber" d="M50,80 C60,70 65,60 60,50 L65,45 C70,40 72,35 70,30 L80,25 C85,20 85,15 80,10 L85,5 C90,0 90,-5 85,-10 L90,-15 C95,-20 95,-25 90,-30 L95,-35 C100,-40 100,-45 95,-50 L100,-55 C105,-60 105,-65 100,-70 L105,-75 C110,-80 110,-85 105,-90">
            <animate attributeName="d" dur="3s" repeatCount="indefinite"
                values="M50,80 C60,70 65,60 60,50 L65,45 C70,40 72,35 70,30 L80,25 C85,20 85,15 80,10 L85,5 C90,0 90,-5 85,-10 L90,-15 C95,-20 95,-25 90,-30 L95,-35 C100,-40 100,-45 95,-50 L100,-55 C105,-60 105,-65 100,-70 L105,-75 C110,-80 110,-85 105,-90;
                       M55,85 C65,75 70,65 65,55 L70,50 C75,45 77,40 75,35 L85,30 C90,25 90,20 85,15 L90,10 C95,5 95,0 90,-5 L95,-10 C100,-15 100,-20 95,-25 L100,-30 C105,-35 105,-40 100,-45 L105,-50 C110,-55 110,-60 105,-65 L110,-70 C115,-75 115,-80 110,-85;
                       M50,80 C60,70 65,60 60,50 L65,45 C70,40 72,35 70,30 L80,25 C85,20 85,15 80,10 L85,5 C90,0 90,-5 85,-10 L90,-15 C95,-20 95,-25 90,-30 L95,-35 C100,-40 100,-45 95,-50 L100,-55 C105,-60 105,-65 100,-70 L105,-75 C110,-80 110,-85 105,-90"
                keyTimes="0;0.5;1"/>
        </path>
    </defs>
    
    <!-- 背景渐变 -->
    <linearGradient id="bgGradient" x1="0%" y1="0%" x2="100%" y2="100%">
        <stop offset="0%" style="stop-color:#4a4a4a;stop-opacity:1" />
        <stop offset="100%" style="stop-color:#2a2a2a;stop-opacity:1" />
    </linearGradient>
    
    <!-- 背景 -->
    <rect width="100%" height="100%" fill="url(#bgGradient)"/>
    
    <!-- 攀岩者实例 -->
    <g fill="#ff6b35">
        <use href="#climber" x="300" y="500" transform="scale(0.8)">
            <animate attributeName="opacity" dur="2s" repeatCount="indefinite"
                values="0.6;0.8;0.6" keyTimes="0;0.5;1"/>
        </use>
        <use href="#climber" x="800" y="300" transform="scale(1.2)">
            <animate attributeName="opacity" dur="3s" repeatCount="indefinite"
                values="0.7;0.9;0.7" keyTimes="0;0.5;1"/>
        </use>
        <use href="#climber" x="1200" y="600" transform="scale(0.6)">
            <animate attributeName="opacity" dur="2.5s" repeatCount="indefinite"
                values="0.5;0.7;0.5" keyTimes="0;0.5;1"/>
        </use>
    </g>
    
    <!-- 装饰线条 -->
    <g stroke="#ff6b35" stroke-width="2" opacity="0.3">
        <line x1="0" y1="200" x2="1920" y2="200">
            <animate attributeName="y1" dur="4s" repeatCount="indefinite"
                values="200;220;200" keyTimes="0;0.5;1"/>
            <animate attributeName="y2" dur="4s" repeatCount="indefinite"
                values="200;180;200" keyTimes="0;0.5;1"/>
        </line>
        <line x1="0" y1="600" x2="1920" y2="600">
            <animate attributeName="y1" dur="5s" repeatCount="indefinite"
                values="600;620;600" keyTimes="0;0.5;1"/>
            <animate attributeName="y2" dur="5s" repeatCount="indefinite"
                values="600;580;600" keyTimes="0;0.5;1"/>
        </line>
    </g>
</svg> 